<?xml version="1.0" encoding="UTF-8"?>
<svg version="1.1" viewBox="0 0 2048 381" width="1280" height="1280" xmlns="http://www.w3.org/2000/svg">
<path transform="translate(65,4)" d="m0 0h1897l81 1v371h-2038v-371z" fill="#171716"/>
<path transform="translate(1426,61)" d="m0 0h43l1 1v146h-2v15l-2 7-7 15 36-14 5-2-1-1-1-8-1-1v-36l1-1 1-8 4-8 2-5 6-8 4-6 8-8 11-7 11-5 7-2h27l7 2 16 8 5 4v2h2v-13l1-1h37l1 1 1 39 16-6 17-7h2v-26l1-1h38l1 1 1 8 20-8 19-8 76-31 16-5 20-3h22l18 3 15 4 16 7 11 6 14 10 13 12 9 11 10 15 7 14 7 23 3 20v21l-3 18-7 21-8 16-11 16-12 13-7 7-14 10-15 8-18 7-21 5-7 1h-18l-57-6-428-48-40-5v-2l20-8 7-3-5-2-8-1v-2l-5-1-9-5-6-5-5-3-5-6v-5l8-8 5-3 13-13 7 6 8 5 4 2 6 1v2h11v-2l8-1 8-5 6-6 1-6 1-1v-116z" fill="#BD3BAE"/>
<path transform="translate(245,125)" d="m0 0h27v2h7l16 8 5 5 1-12 1-1h38l1 1v146h-39l-1-1-1-11-3 1v2l-9 6-7 3-7 2h-32l-7-3-7-2-3-3-8-4-14-14-3-5-6-11-3-9-2-8v-33l3-11 3-5 2-6 7-10 3-5 8-8 7-4 15-8 7-1z" fill="#FAF6FA"/>
<path transform="translate(727,125)" d="m0 0h27l7 2 16 8 5 4v2h2l-1-7 2-7h37l1 1v146h-39v-13l-7 6-7 4-7 3h-6v2h-33v-2h-6l-7-3-4-3-9-5-12-12-8-14-4-10-1-7-1-1-1-11 1-26h2v-8l5-12 3-3 4-7 2-4h2l2-4 6-5 7-5 14-7 7-1z" fill="#FBF9FB"/>
<path transform="translate(1552,125)" d="m0 0h27l7 2 16 8 5 4v2h2v-13l1-1h37l1 1v145l-1 1h-38l-1-13-6 6-7 4-7 3-7 2h-31l-8-3-6-2-3-3-8-4-7-6v-2l-4-2-10-15-5-11-1-8-1-1v-36l1-1 1-8 4-8 2-5 6-8 4-6 8-8 11-7 11-5z" fill="#FCFAFC"/>
<path transform="translate(979,127)" d="m0 0h37l3 3 4 13 3 7 4 14 4 10 3 10 3 8 4 13 3 7 1 1 5-17 4-10 3-9 4-10 4-13 5-14 3-12 1-1h28l3 5 8 21 3 10 3 8 4 13 3 8 4 13 3 9h2l1-7 8-26 3-8 7-18 7-21 2-7h40v4l-6 17-5 12-4 13-3 5-4 13-3 6-4 13-3 5-2 7-4 11-3 7-3 9-2 3-3 12-4 9-1 1h-30l-2-7-5-13-6-16-5-15-5-12-4-13-3-5-3 5-3 11-5 12-4 11-4 10-5 15-4 9-2 6-2 2h-27l-4-7-6-17-4-9-3-9-4-10-6-17-8-21-4-9-4-13-5-12-6-17-1-5z" fill="#FAF6FA"/>
<path transform="translate(512,57)" d="m0 0h39l1 83 9-8 12-5 6-2h26l9 4 9 3 7 6 5 3 3 5v2h2l5 8 2 6 1 8 2 3v100l-1 1h-39l-1-86-2-7-4-8-7-7-5-3h-22l-9 6h-2l-6 15-1 90h-39l-1-2v-213z" fill="#FBF7FA"/>
<path transform="translate(23,61)" d="m0 0h47l4 5 11 17 3 5 11 19 9 13 4 8 5 8 2 5 5-2 5-10 5-8 8-12 5-9 5-8 10-17 6-8 3-5 1-1h45l1 3-4 5-4 7-4 6-6 10-7 10-12 20-4 5-3 5-5 9-6 9-6 8-4 8-10 15-1 93h-42l-1-91-6-9-5-9-11-17-20-32-12-19-9-14-7-11-6-8z" fill="#FBF8FA"/>
<path transform="translate(1829,125)" d="m0 0h23l13 5 10 6 10 10 7 11 4 13 1 1v102l-1 1h-37l-1-1-1-85-4-13-7-8-7-4h-23l-10 7-6 11-1 92-1 1h-38l-1-20v-85l1-41h39l1 12 7-6 7-4z" fill="#FDFDFD"/>
<path transform="translate(1426,61)" d="m0 0h43l1 1v146h-2v15l-2 7-6 12-7 11-10 10-14 8-6 3-7 1-1 1h-37l-1-1-8-1v-2l-5-1-9-5-6-5-5-3-5-6v-5l8-8 5-3 13-13 7 6 8 5 4 2 6 1v2h11v-2l8-1 8-5 6-6 1-6 1-1v-116z" fill="#FCFAFB"/>
<path transform="translate(410,125)" d="m0 0h38v2l7 1 12 5 6 4 3 3 5 3 4 6-1 4-21 21-4-1v-4l-5-1-7-5-4-2-10-1-7-1-9 2-3 1-1 3v8l5 4 10 4 16 4 10 4 15 8 9 9 5 11 2 7v13l-3 9-5 10-5 7-5 3-3 3-10 5-7 1-1 1h-39l-1-1-8-1-5-3-11-4-3-3-5-3-11-11 6-7 18-18 2 1 2 5 5 2v2l6 2 7 3 9 2 6 1h7l2-2 8-1 3-3v-9l-1-4-4-1-13-5-21-6-6-3-6-2-3-3-7-4-6-7-5-12v-20l5-12 3-6 8-8 16-8z" fill="#FAF6FA"/>
<path transform="translate(892,125)" d="m0 0h38l9 4 9 3 6 4 4 3v2l5 1 4 7-1 4-21 21-4-2v-3l-4-1-5-3-7-4-10-1-1-1h-6l-1 1-8 1-4 4v7l5 5 10 4 16 4 12 5 13 7 9 9 5 10 1 7 1 1v13l-1 1-2 9-5 9-2 2-1 4-5 1v2l-9 6-6 3-7 1-1 1h-39l-1-1-9-2-15-6-5-4-8-7-5-5v-3h2v-2l8-7 14-14 3 6 6 3 6 4 16 4 5 1h7l2-2 8-1 4-4-1-8-1-4-4-1-6-3-18-5-10-3-6-3-6-2-3-3-5-3-8-8-5-13v-17l3-10 5-9 10-10 15-7z" fill="#FBF7FA"/>
<path transform="translate(1198,273)" d="m0 0h13l133 15 7 2-2 2-28 11-41 17-37 15-25 10-10 3h-11l-13-5-8-6-7-10-3-9v-14l4-12 7-9 10-7z" fill="#BD3BAE"/>
<path transform="translate(1226,127)" d="m0 0h37l2 2v129l-1 16h-39l-1-14v-111l1-21z" fill="#FAF4F9"/>
<path transform="translate(1685,127)" d="m0 0h38l1 26v94l-1 27h-38l-1-1v-145z" fill="#FCFAFC"/>
<path transform="translate(1565,162)" d="m0 0h18l13 6 8 8 5 10 1 7 1 1v13l-1 1-1 8-5 9-7 8-11 6h-25l-10-6-8-8-5-10-1-10-1-3 1-6 1-1 1-10 5-9 4-5h2v-2l9-5z" fill="#BD3BAE"/>
<path transform="translate(740,162)" d="m0 0h17l13 5 8 8 6 13 2 7v12l-2 5-3 9-4 6-7 7-10 5h-24l-10-6-8-8-4-8-2-12-1-1v-7l2-5 2-9 6-10 7-6z" fill="#171716"/>
<path transform="translate(257,162)" d="m0 0h18l12 5 3 2v2l4 2 5 8 2 4 2 9v13l-3 11-4 8-8 8-10 5h-24l-10-6-8-8-5-10v-10h-2v-8l1-1 1-10 6-11 8-8 6-3z" fill="#171716"/>
<path transform="translate(1565,162)" d="m0 0h18l13 6 8 8 3 6v3l-10 5-42 17-13 5h-3l-2-7-1-3 1-6 1-1 1-10 5-9 4-5h2v-2l9-5z" fill="#171716"/>
<path transform="translate(1239,59)" d="m0 0h11l8 4 7 8 2 5v13l-6 10-5 4-4 2h-15l-9-6-5-8-1-3v-12l4-8 7-7z" fill="#FAF5FA"/>
<path transform="translate(1699,59)" d="m0 0h10l9 4 6 7 2 4v16l-3 6-7 7-4 2h-16l-6-4-6-7-2-4v-16l5-8 6-5z" fill="#FAF6FA"/>
</svg>
