<?xml version="1.0" encoding="UTF-8"?>
<svg version="1.1" viewBox="0 0 1886 866" width="500" height="500" xmlns="http://www.w3.org/2000/svg">
<path transform="translate(2,2)" d="m0 0h1882v862h-1882z" fill="#FCFCFC"/>
<path transform="translate(2,2)" d="m0 0h1882v99h-1882z" fill="#189BB2"/>
<path transform="translate(1413,30)" d="m0 0h300v44h-300l-3-3v-38z" fill="#FCFCFC"/>
<path transform="translate(1052,354)" d="m0 0h124l5 4 1 2v45l-4 5-2 1h-124l-5-4-1-2v-45l4-5z" fill="#232F3E"/>
<path transform="translate(910,354)" d="m0 0h115l5 4 1 2v45l-4 5-2 1h-115l-5-4-1-2v-45l4-5z" fill="#232F3E"/>
<path transform="translate(769,354)" d="m0 0h114l5 4 1 2v45l-4 5-2 1h-114l-5-4-1-2v-45l4-5z" fill="#232F3E"/>
<path transform="translate(1719,30)" d="m0 0h102l2 2v40l-2 2h-102z" fill="#F3BE3F"/>
<path transform="translate(1052,354)" d="m0 0h124l5 4 1 2v45l-4 5-2 1h-124l-5-4-1-2v-45l4-5zm1 3-4 4v43l4 4h122l4-4v-43l-4-4z"/>
<path transform="translate(910,354)" d="m0 0h115l5 4 1 2v45l-4 5-2 1h-115l-5-4-1-2v-45l4-5zm1 3-4 4v43l4 4h113l4-4v-43l-4-4z"/>
<path transform="translate(769,354)" d="m0 0h114l5 4 1 2v45l-4 5-2 1h-114l-5-4-1-2v-45l4-5zm1 3-4 4v43l4 4h112l4-4v-43l-4-4z"/>
<path transform="translate(987,208)" d="m0 0h7 3 7v27l-3 6-5 3h-8l-5-3v-3l2-3 4 3h5l2-5-2 1h-7l-5-5-2-6 1-8 4-6z"/>
<path transform="translate(724,200)" d="m0 0h7l1 26 2 2h6l2-2 1-26h7v26l-4 6-5 2h-8l-6-3-3-5z"/>
<path transform="translate(1106,200)" d="m0 0h9l6 4 2 3v3h-7l-1-4h-7l-2 1 1 5 12 5 4 5v6l-5 5-3 1h-9l-6-3-3-4v-4h7l3 5h7l1-5-9-4-6-4-2-3v-6l5-5z"/>
<path transform="translate(915,200)" d="m0 0h9l6 4 2 3v3h-7l-1-4h-7l-2 1 1 5 12 5 4 5v6l-5 5-3 1h-9l-6-3-3-4v-4h7l3 5h7l1-5-9-4-6-4-2-3v-6l5-5z"/>
<path transform="translate(79,39)" d="m0 0h7l5 12 2 5 6-17h7v26h-5l-1-14-5 14-5-1-5-14v15h-6z" fill="#FDFDFD"/>
<path transform="translate(841,198)" d="m0 0h7l1 12 3-2h6l5 4v22h-6l-1-18-1-2h-5l-1 1-1 19h-7z"/>
<path transform="translate(1175,197)" d="m0 0h6l1 19 7-8h8l-6 8-2 3 9 14v1h-8l-6-9-2 1-1 8h-6z"/>
<path transform="translate(1208,208)" d="m0 0h7l6 4 2 6v6h-16l1 4h10l1-2 3 3-1 3-5 2h-8l-6-4-2-4v-10l4-6z"/>
<path transform="translate(876,208)" d="m0 0h7l6 4 2 6v6h-16l1 4h10l1-2 3 3-1 3-5 2h-8l-6-4-2-4v-10l4-6z"/>
<path transform="translate(1053,208)" d="m0 0h8l4 2 2 3 1 21h-7l-1-2-3 2h-6l-5-4v-7l4-4 2-1h8l-1-4h-5l-1 1h-7l1-4z"/>
<path transform="translate(950,275)" d="m0 0 4 1 3 5 7 2 1 4-4 4v7l-4 2-4-2-5 1-4 1-2-2v-7l-4-4 1-4 7-2z" fill="#F4BE3F"/>
<path transform="translate(936,208)" d="m0 0h7l1 19 1 1h5l1-1 1-19h6v26h-6l-1-2-3 2h-6l-5-4-1-5z"/>
<path transform="translate(810,200)" d="m0 0h28v5h-11v29h-7v-29h-10z"/>
<path transform="translate(230,46)" d="m0 0h12l4 3 1 3v7l-3 5-7 1-2-1v8h-5z" fill="#FDFDFD"/>
<path transform="translate(210,46)" d="m0 0h12l4 3 1 3v7l-3 5-7 1-2-1v8h-5z" fill="#FDFDFD"/>
<path transform="translate(1028,208)" d="m0 0h8l5 3 2 7h-7l-2-4-5 1-1 9 2 4h6v-3h7l-2 6-5 3h-8l-6-5-1-2v-12l5-6z"/>
<path transform="translate(194,39)" d="m0 0h6l9 24v2h-6l-1-6h-10l-1 6h-6z" fill="#FDFDFD"/>
<path transform="translate(116,46)" d="m0 0h6l4 2 2 4v7l-2 4-4 2h-6l-4-2-2-4v-7l2-4z" fill="#FDFDFD"/>
<path transform="translate(1129,202)" d="m0 0h7v6h4v5h-4v16h4v5h-7l-4-4v-17h-4v-5h4z"/>
<path transform="translate(1073,197)" d="m0 0h7v37h-7z"/>
<path transform="translate(299,527)" d="m0 0h9l5 5v9l-5 5h-9z"/>
<path transform="translate(930,373)" d="m0 0h9l5 5v9l-5 5h-9z" fill="#FDFDFD"/>
<path transform="translate(164,46)" d="m0 0h6l5 5v7l-11 1 1 1h8l2 3-4 2h-7l-5-4-1-2v-7l4-5z" fill="#E6F3F5"/>
<path transform="translate(1144,208)" d="m0 0h6l1 2 3-2h4v7l-7 1v18h-7z"/>
<path transform="translate(964,208)" d="m0 0h6l1 2 3-2h4v7l-7 1v18h-7z"/>
<path transform="translate(756,208)" d="m0 0h6l1 2 3-2h4v7l-7 1v18h-7z"/>
<path transform="translate(299,467)" d="m0 0h10l4 4-1 6h-2l4 9h-5l-3-5v-2h-3v7h-4z"/>
<path transform="translate(850,278)" d="m0 0h10l4 4-1 6h-2l4 9h-5l-3-5v-2h-3v7h-4z"/>
<path transform="translate(404,466)" d="m0 0h4v20h-10l-3-3v-9l3-3 6 1z"/>
<path transform="translate(913,277)" d="m0 0h4v20h-10l-3-3v-9l3-3 6 1z"/>
<path transform="translate(526,467)" d="m0 0 7 1 2 5v7l-2 5-7 1-3-3v-13z"/>
<path transform="translate(298,647)" d="m0 0h11l4 3v6l-4 3h-7v7h-4z"/>
<path transform="translate(971,377)" d="m0 0h10l2 1 6-1 3 3v12h-4l-1-11h-3l-1 11h-3l-1-12-3 1-1 11h-4z" fill="#FDFDFD"/>
<path transform="translate(443,527)" d="m0 0 7 1 1 1v5l-2 3h2l1 5-4 4-7-1-2-5 2-5-1-5z"/>
<path transform="translate(461,687)" d="m0 0h8v17l-3 3h-6l-2-4 7 1 2-3-6 1-3-2-1-8 2-4z"/>
<path transform="translate(1229,651)" d="m0 0h8v17l-3 3h-6l-2-4 7 1 2-3-6 1-3-2-1-8 2-4z"/>
<path transform="translate(1105,651)" d="m0 0h8v17l-3 3h-6l-2-4 7 1 2-3-6 1-3-2-1-8 2-4z"/>
<path transform="translate(1068,651)" d="m0 0h8v17l-3 3h-6l-2-4 7 1 2-3-6 1-3-2-1-8 2-4z"/>
<path transform="translate(798,587)" d="m0 0h10l3 2 1 4-2 4h-2l4 7v2h-3l-3-6v-2h-5v8h-3z"/>
<path transform="translate(635,587)" d="m0 0h10l3 2 1 4-2 4h-2l4 7v2h-3l-3-6v-2h-5v8h-3z"/>
<path transform="translate(1136,377)" d="m0 0 4 1 1-1h8l1 7h2l1-7h5l-6 18-2 2h-4v-3l2-1-1-7-3-6-4 1-1 11h-3z" fill="#FDFDFD"/>
<path transform="translate(1029,278)" d="m0 0h10l3 2 1 4-2 4h-2l4 7v2h-3l-3-6v-2h-5v8h-3z"/>
<path transform="translate(1162,208)" d="m0 0h7v26h-7z"/>
<path transform="translate(1009,208)" d="m0 0h7v26h-7z"/>
<path transform="translate(774,208)" d="m0 0h7v26h-7z"/>
<path transform="translate(721,587)" d="m0 0h4l6 14 5-13 4-1v19h-2l-1-12-5 12-3-1-4-9-1 10h-3z"/>
<path transform="translate(544,587)" d="m0 0h10l4 3v6l-4 3h-7v7h-3z"/>
<path transform="translate(1072,373)" d="m0 0h4v8h7v-8h4v19h-4v-8h-7v8h-4z" fill="#FDFDFD"/>
<path transform="translate(794,373)" d="m0 0h4l7 17v2l-5-1v-3h-8l-1 4-4-1z" fill="#E8E9EB"/>
<path transform="translate(129,46)" d="m0 0h6l2 7v4h2l1-7 1-4h6l-6 19h-6z" fill="#FDFDFD"/>
<path transform="translate(299,682)" d="m0 0h2l1 6 1-1h5l3 4v7l-3 4h-9z"/>
<path transform="translate(1578,646)" d="m0 0h2l1 6 1-1h5l3 4v7l-3 4h-9z"/>
<path transform="translate(512,687)" d="m0 0h9l3 5-1 8-2 2-7-1v6h-2z"/>
<path transform="translate(898,651)" d="m0 0h9l3 5-1 8-2 2-7-1v6h-2z"/>
<path transform="translate(518,651)" d="m0 0h9l3 5-1 8-2 2-7-1v6h-2z"/>
<path transform="translate(386,646)" d="m0 0h2v20h-8l-3-2-1-9 4-4 6 1z"/>
<path transform="translate(1093,277)" d="m0 0h2v20h-8l-3-2-1-9 4-4 6 1z"/>
<path transform="translate(485,687)" d="m0 0 7 1 2 3v7l-4 4-7-1-2-3v-7z"/>
<path transform="translate(400,687)" d="m0 0 7 1 2 3v7l-4 4-7-1-2-3v-7z"/>
<path transform="translate(1319,651)" d="m0 0 7 1 2 3v7l-4 4-7-1-2-3v-7z"/>
<path transform="translate(1251,651)" d="m0 0 7 1 2 3v7l-4 4-7-1-2-3v-7z"/>
<path transform="translate(969,651)" d="m0 0 7 1 2 3v7l-4 4-7-1-2-3v-7z"/>
<path transform="translate(886,651)" d="m0 0 7 1 2 3v7l-4 4-7-1-2-3v-7z"/>
<path transform="translate(818,651)" d="m0 0 7 1 2 3v7l-4 4-7-1-2-3v-7z"/>
<path transform="translate(609,651)" d="m0 0 7 1 2 3v7l-4 4-7-1-2-3v-7z"/>
<path transform="translate(326,651)" d="m0 0 7 1 2 3v7l-4 4-7-1-2-3v-7z"/>
<path transform="translate(748,591)" d="m0 0 7 1 2 3v7l-4 4-7-1-2-3v-7z"/>
<path transform="translate(375,531)" d="m0 0 7 1 2 3v7l-4 4-7-1-2-3v-7z"/>
<path transform="translate(1124,377)" d="m0 0 7 1 2 3v7l-4 4-7-1-2-3v-7z" fill="#FDFDFD"/>
<path transform="translate(840,377)" d="m0 0 7 1 2 3v7l-4 4-7-1-2-3v-7z" fill="#FDFDFD"/>
<path transform="translate(1e3 282)" d="m0 0 7 1 2 3v7l-4 4-7-1-2-3v-7z"/>
<path transform="translate(979,278)" d="m0 0 4 1 7 11 1-12h3v19l-4-1-7-11-1 12h-3z"/>
<path transform="translate(556,467)" d="m0 0h5l3 3v11l-5 5h-4v-2l5-2v-2h-5l-3-5 1-6z"/>
<path transform="translate(303,587)" d="m0 0h6l5 5v2h-4l-2-3h-4l-1 2v7l1 2 5-1 1-2h4l-2 5-3 2h-6l-4-3-1-3v-7l3-5z"/>
<path transform="translate(319,591)" d="m0 0h6l3 3 1 12h-11l-2-2v-5l3-2h5v-3l-8 1 1-3z" fill="#151515"/>
<path transform="translate(344,531)" d="m0 0h6l3 3 1 12h-11l-2-2v-5l3-2h5v-3l-8 1 1-3z" fill="#151515"/>
<path transform="translate(355,471)" d="m0 0h6l3 3 1 12h-11l-2-2v-5l3-2h5v-3l-8 1 1-3z" fill="#151515"/>
<path transform="translate(997,377)" d="m0 0h6l3 3 1 12h-11l-2-2v-5l3-2h5v-3l-8 1 1-3z" fill="#EAEBEC"/>
<path transform="translate(960,377)" d="m0 0h6l3 3 1 12h-11l-2-2v-5l3-2h5v-3l-8 1 1-3z" fill="#EAEBEC"/>
<path transform="translate(869,282)" d="m0 0h6l3 3 1 12h-11l-2-2v-5l3-2h5v-3l-8 1 1-3z" fill="#151515"/>
<path transform="translate(1443,44)" d="m0 0h9l3 3-1 5-1 3 2 6-3-1-2-6h-5v7h-2z"/>
<path transform="translate(990,213)" d="m0 0h5l2 2v12l-2 2h-5l-3-5 1-9z" fill="#FDFDFD"/>
<path transform="translate(384,471)" d="m0 0h6l3 3v5h-9l2 3 6-1 1 3-3 2h-6l-4-5 1-7z" fill="#101010"/>
<path transform="translate(341,471)" d="m0 0h6l3 3v5h-9l2 3 6-1 1 3-3 2h-6l-4-5 1-7z" fill="#101010"/>
<path transform="translate(319,471)" d="m0 0h6l3 3v5h-9l2 3 6-1 1 3-3 2h-6l-4-5 1-7z" fill="#101010"/>
<path transform="translate(893,282)" d="m0 0h6l3 3v5h-9l2 3 6-1 1 3-3 2h-6l-4-5 1-7z" fill="#101010"/>
<path transform="translate(386,531)" d="m0 0h10l2 1 1 3v11h-4l-1-11h-3l-1 11h-4z"/>
<path transform="translate(316,531)" d="m0 0h4l1 11h3l1-11h4v15h-10l-2-1-1-3z"/>
<path transform="translate(851,377)" d="m0 0h10l2 1 1 3v11h-4l-1-11h-3l-1 11h-4z" fill="#FDFDFD"/>
<path transform="translate(337,687)" d="m0 0 7 1 1 2v12h-9l-2-2v-5l3-2h5l-1-3-4-1v2h-3l1-3z"/>
<path transform="translate(1596,651)" d="m0 0 7 1 1 2v12h-9l-2-2v-5l3-2h5l-1-3-4-1v2h-3l1-3z"/>
<path transform="translate(1489,651)" d="m0 0 7 1 1 2v12h-9l-2-2v-5l3-2h5l-1-3-4-1v2h-3l1-3z"/>
<path transform="translate(1361,651)" d="m0 0 7 1 1 2v12h-9l-2-2v-5l3-2h5l-1-3-4-1v2h-3l1-3z"/>
<path transform="translate(1011,651)" d="m0 0 7 1 1 2v12h-9l-2-2v-5l3-2h5l-1-3-4-1v2h-3l1-3z"/>
<path transform="translate(938,651)" d="m0 0 7 1 1 2v12h-9l-2-2v-5l3-2h5l-1-3-4-1v2h-3l1-3z"/>
<path transform="translate(782,651)" d="m0 0 7 1 1 2v12h-9l-2-2v-5l3-2h5l-1-3-4-1v2h-3l1-3z"/>
<path transform="translate(571,651)" d="m0 0 7 1 1 2v12h-9l-2-2v-5l3-2h5l-1-3-4-1v2h-3l1-3z"/>
<path transform="translate(439,651)" d="m0 0 7 1 1 2v12h-9l-2-2v-5l3-2h5l-1-3-4-1v2h-3l1-3z"/>
<path transform="translate(402,651)" d="m0 0 7 1 1 2v12h-9l-2-2v-5l3-2h5l-1-3-4-1v2h-3l1-3z"/>
<path transform="translate(855,591)" d="m0 0 7 1 1 2v12h-9l-2-2v-5l3-2h5l-1-3-4-1v2h-3l1-3z"/>
<path transform="translate(818,591)" d="m0 0 7 1 1 2v12h-9l-2-2v-5l3-2h5l-1-3-4-1v2h-3l1-3z"/>
<path transform="translate(690,591)" d="m0 0 7 1 1 2v12h-9l-2-2v-5l3-2h5l-1-3-4-1v2h-3l1-3z"/>
<path transform="translate(655,591)" d="m0 0 7 1 1 2v12h-9l-2-2v-5l3-2h5l-1-3-4-1v2h-3l1-3z"/>
<path transform="translate(564,591)" d="m0 0 7 1 1 2v12h-9l-2-2v-5l3-2h5l-1-3-4-1v2h-3l1-3z"/>
<path transform="translate(513,591)" d="m0 0 7 1 1 2v12h-9l-2-2v-5l3-2h5l-1-3-4-1v2h-3l1-3z"/>
<path transform="translate(454,591)" d="m0 0 7 1 1 2v12h-9l-2-2v-5l3-2h5l-1-3-4-1v2h-3l1-3z"/>
<path transform="translate(474,471)" d="m0 0 7 1 1 2v12h-9l-2-2v-5l3-2h5l-1-3-4-1v2h-3l1-3z"/>
<path transform="translate(1049,282)" d="m0 0 7 1 1 2v12h-9l-2-2v-5l3-2h5l-1-3-4-1v2h-3l1-3z"/>
<path transform="translate(434,587)" d="m0 0h3l1 7 7-7 3 1-6 7 4 7 3 4-4-1-5-6h-2l-1 7h-3z"/>
<path transform="translate(1426,651)" d="m0 0h4 5l2 1 7-1 2 2v13h-2l-1-13-5 2-1 11h-2l-1-13-5 2-1 11h-2z"/>
<path transform="translate(1382,651)" d="m0 0h4 5l2 1 7-1 2 2v13h-2l-1-13-5 2-1 11h-2l-1-13-5 2-1 11h-2z"/>
<path transform="translate(460,651)" d="m0 0h4 5l2 1 7-1 2 2v13h-2l-1-13-5 2-1 11h-2l-1-13-5 2-1 11h-2z"/>
<path transform="translate(462,531)" d="m0 0h4 5l2 1 7-1 2 2v13h-2l-1-13-5 2-1 11h-2l-1-13-5 2-1 11h-2z"/>
<path transform="translate(1329,651)" d="m0 0h3l3 8 3-8h2l3 9 3-9 3 1-4 13-3 1-3-9-3 9h-3z"/>
<path transform="translate(665,591)" d="m0 0h3l3 8 3-8h2l3 9 3-9 3 1-4 13-3 1-3-9-3 9h-3z"/>
<path transform="translate(368,687)" d="m0 0h5l3 3v5h-9l2 4 6-1v3l-7 1-4-4v-7z" fill="#343434"/>
<path transform="translate(1625,651)" d="m0 0h5l3 3v5h-9l2 4 6-1v3l-7 1-4-4v-7z" fill="#343434"/>
<path transform="translate(1544,651)" d="m0 0h5l3 3v5h-9l2 4 6-1v3l-7 1-4-4v-7z" fill="#343434"/>
<path transform="translate(1453,651)" d="m0 0h5l3 3v5h-9l2 4 6-1v3l-7 1-4-4v-7z" fill="#343434"/>
<path transform="translate(1291,651)" d="m0 0h5l3 3v5h-9l2 4 6-1v3l-7 1-4-4v-7z" fill="#343434"/>
<path transform="translate(1151,651)" d="m0 0h5l3 3v5h-9l2 4 6-1v3l-7 1-4-4v-7z" fill="#343434"/>
<path transform="translate(1039,651)" d="m0 0h5l3 3v5h-9l2 4 6-1v3l-7 1-4-4v-7z" fill="#343434"/>
<path transform="translate(916,651)" d="m0 0h5l3 3v5h-9l2 4 6-1v3l-7 1-4-4v-7z" fill="#343434"/>
<path transform="translate(846,651)" d="m0 0h5l3 3v5h-9l2 4 6-1v3l-7 1-4-4v-7z" fill="#343434"/>
<path transform="translate(761,651)" d="m0 0h5l3 3v5h-9l2 4 6-1v3l-7 1-4-4v-7z" fill="#343434"/>
<path transform="translate(709,651)" d="m0 0h5l3 3v5h-9l2 4 6-1v3l-7 1-4-4v-7z" fill="#343434"/>
<path transform="translate(682,651)" d="m0 0h5l3 3v5h-9l2 4 6-1v3l-7 1-4-4v-7z" fill="#343434"/>
<path transform="translate(647,651)" d="m0 0h5l3 3v5h-9l2 4 6-1v3l-7 1-4-4v-7z" fill="#343434"/>
<path transform="translate(536,651)" d="m0 0h5l3 3v5h-9l2 4 6-1v3l-7 1-4-4v-7z" fill="#343434"/>
<path transform="translate(588,591)" d="m0 0h5l3 3v5h-9l2 4 6-1v3l-7 1-4-4v-7z" fill="#343434"/>
<path transform="translate(1073,282)" d="m0 0h5l3 3v5h-9l2 4 6-1v3l-7 1-4-4v-7z" fill="#343434"/>
<path transform="translate(333,591)" d="m0 0h6l3 3v2h-4v-2h-4l1 2 6 3 1 4-3 3h-6l-3-3v-2l8 2-1-2-6-3-1-4z"/>
<path transform="translate(369,471)" d="m0 0h6l3 3v2h-4v-2h-4l1 2 6 3 1 4-3 3h-6l-3-3v-2l8 2-1-2-6-3-1-4z"/>
<path transform="translate(1100,377)" d="m0 0h6l3 3v2h-4v-2h-4l1 2 6 3 1 4-3 3h-6l-3-3v-2l8 2-1-2-6-3-1-4z" fill="#FDFDFD"/>
<path transform="translate(149,46)" d="m0 0h6v19h-6z" fill="#FDFDFD"/>
<path transform="translate(810,377)" d="m0 0 7 1 1 5h-3l-1-2h-3v7l7-1-1 4-7 1-4-4v-7z" fill="#FDFDFD"/>
<path transform="translate(1765,48)" d="m0 0h5l2 2 1 11h-9l-2-2 1-5 7-1-1-2-4-1v2h-2v-3z" fill="#32270D"/>
<path transform="translate(338,647)" d="m0 0h4v4h2v3h-2v9h3v3h-5l-2-2v-10h-2v-3h2z"/>
<path transform="translate(345,587)" d="m0 0h4v4h2v3h-2v9h3v3h-5l-2-2v-10h-2v-3h2z"/>
<path transform="translate(356,527)" d="m0 0h4v4h2v3h-2v9h3v3h-5l-2-2v-10h-2v-3h2z"/>
<path transform="translate(1112,373)" d="m0 0h4v4h2v3h-2v9h3v3h-5l-2-2v-10h-2v-3h2z" fill="#FDFDFD"/>
<path transform="translate(821,373)" d="m0 0h4v4h2v3h-2v9h3v3h-5l-2-2v-10h-2v-3h2z" fill="#FDFDFD"/>
<path transform="translate(881,278)" d="m0 0h4v4h2v3h-2v9h3v3h-5l-2-2v-10h-2v-3h2z"/>
<path transform="translate(360,587)" d="m0 0 4 1 4 12 2-3 4-10 3 1-7 18h-3z"/>
<path transform="translate(527,469)" d="m0 0 4 1 1 1v11l-2 2-4-1-1-1v-11z" fill="#FDFDFD"/>
<path transform="translate(428,527)" d="m0 0 7 1 1 1v5 4 6l-3 2-7-1-2-4h3l1 2 5-1-1-4-4-1v-2l5-2-1-3h-4l-1 2-3-1z"/>
<path transform="translate(1169,645)" d="m0 0h2l1 11 5-5 3 1-4 4 1 4 4 6h-4l-4-6h-1l-1 6h-2z"/>
<path transform="translate(400,585)" d="m0 0h2l1 11 5-5 3 1-4 4 1 4 4 6h-4l-4-6h-1l-1 6h-2z"/>
<path transform="translate(511,467)" d="m0 0 7 1 1 1v6l-7 8 8 1v2h-12l1-4 7-8-1-4h-4l-1 3h-3l2-5z"/>
<path transform="translate(1753,48)" d="m0 0 6 1 1 6-8 1 1 2h7l-2 3-7-1-2-3 1-7z" fill="#281F0A"/>
<path transform="translate(1738,44)" d="m0 0h6l3 3v2l-4-2h-4v3l8 4v5l-3 2h-6l-3-3v-2l4 2h5v-3l-7-3-2-2 1-4z"/>
<path transform="translate(312,687)" d="m0 0 4 1 3 7 3-8 3 1-7 18-5 1v-2l3-1v-6z"/>
<path transform="translate(1404,651)" d="m0 0 4 1 3 7 3-8 3 1-7 18-5 1v-2l3-1v-6z"/>
<path transform="translate(482,651)" d="m0 0 4 1 3 7 3-8 3 1-7 18-5 1v-2l3-1v-6z"/>
<path transform="translate(412,591)" d="m0 0 4 1 3 7 3-8 3 1-7 18-5 1v-2l3-1v-6z"/>
<path transform="translate(1526,646)" d="m0 0h2l1 6 1-1h5l2 2v13h-2l-1-13-5 2-1 11h-2z"/>
<path transform="translate(1133,646)" d="m0 0h2l1 6 1-1h5l2 2v13h-2l-1-13-5 2-1 11h-2z"/>
<path transform="translate(760,586)" d="m0 0h2l1 6 1-1h5l2 2v13h-2l-1-13-5 2-1 11h-2z"/>
<path transform="translate(613,586)" d="m0 0h2l1 6 1-1h5l2 2v13h-2l-1-13-5 2-1 11h-2z"/>
<path transform="translate(495,586)" d="m0 0h2l1 6 1-1h5l2 2v13h-2l-1-13-5 2-1 11h-2z"/>
<path transform="translate(430,687)" d="m0 0h6l2 4-7-1v2l7 3 1 4-3 3h-6l-3-3v-2h3l1 2h4l1-3-6-1-2-2 1-5z"/>
<path transform="translate(1610,651)" d="m0 0h6l2 4-7-1v2l7 3 1 4-3 3h-6l-3-3v-2h3l1 2h4l1-3-6-1-2-2 1-5z"/>
<path transform="translate(660,651)" d="m0 0h6l2 4-7-1v2l7 3 1 4-3 3h-6l-3-3v-2h3l1 2h4l1-3-6-1-2-2 1-5z"/>
<path transform="translate(506,651)" d="m0 0h6l2 4-7-1v2l7 3 1 4-3 3h-6l-3-3v-2h3l1 2h4l1-3-6-1-2-2 1-5z"/>
<path transform="translate(601,591)" d="m0 0h6l2 4-7-1v2l7 3 1 4-3 3h-6l-3-3v-2h3l1 2h4l1-3-6-1-2-2 1-5z"/>
<path transform="translate(483,591)" d="m0 0h6l2 4-7-1v2l7 3 1 4-3 3h-6l-3-3v-2h3l1 2h4l1-3-6-1-2-2 1-5z"/>
<path transform="translate(1427,44)" d="m0 0h2l1 13 5 1 1-1 1-13h2v14l-3 3h-6l-3-3z"/>
<path transform="translate(804,651)" d="m0 0 7 1 1 4-4-2-4 1v7l4 1 4-2-1 4-7 1-3-2-1-8 2-4z"/>
<path transform="translate(723,651)" d="m0 0 7 1 1 4-4-2-4 1v7l4 1 4-2-1 4-7 1-3-2-1-8 2-4z"/>
<path transform="translate(692,651)" d="m0 0h3l3 4 3-4 3 1-4 6 4 8-4-1-3-3-2 4h-3l2-5 1-4z"/>
<path transform="translate(633,651)" d="m0 0 7 1 1 4-4-2-4 1v7l4 1 4-2-1 4-7 1-3-2-1-8 2-4z"/>
<path transform="translate(550,651)" d="m0 0 7 1 1 4-4-2-4 1v7l4 1 4-2-1 4-7 1-3-2-1-8 2-4z"/>
<path transform="translate(389,591)" d="m0 0 7 1 1 4-4-2-4 1v7l4 1 4-2-1 4-7 1-3-2-1-8 2-4z"/>
<path transform="translate(464,467)" d="m0 0h3v15l-3 4h-6l-3-2v-4h2l2 3h4z"/>
<path transform="translate(497,687)" d="m0 0h2l1 13 5-2 1-11h2v15h-4-5l-2-2z"/>
<path transform="translate(1464,651)" d="m0 0h4 5l2 2v13h-2l-1-13-5 2-1 11h-2z"/>
<path transform="translate(1211,651)" d="m0 0h4 5l2 2v13h-2l-1-13-5 2-1 11h-2z"/>
<path transform="translate(1087,651)" d="m0 0h4 5l2 2v13h-2l-1-13-5 2-1 11h-2z"/>
<path transform="translate(1050,651)" d="m0 0h4 5l2 2v13h-2l-1-13-5 2-1 11h-2z"/>
<path transform="translate(981,651)" d="m0 0h4 5l2 2v13h-2l-1-13-5 2-1 11h-2z"/>
<path transform="translate(734,651)" d="m0 0h2l1 13 5-2 1-11h2v15h-4-5l-2-2z"/>
<path transform="translate(414,651)" d="m0 0h4 5l2 2v13h-2l-1-13-5 2-1 11h-2z"/>
<path transform="translate(362,651)" d="m0 0h4 5l2 2v13h-2l-1-13-5 2-1 11h-2z"/>
<path transform="translate(837,591)" d="m0 0h4 5l2 2v13h-2l-1-13-5 2-1 11h-2z"/>
<path transform="translate(466,591)" d="m0 0h2l1 13 5-2 1-11h2v15h-4-5l-2-2z"/>
<path transform="translate(493,531)" d="m0 0h4 5l2 2v13h-2l-1-13-5 2-1 11h-2z"/>
<path transform="translate(486,471)" d="m0 0h4 5l2 2v13h-2l-1-13-5 2-1 11h-2z"/>
<path transform="translate(117,50)" d="m0 0 5 1 1 7-2 3-5-1-1-1v-6z" fill="#169AB2"/>
<path transform="translate(303,530)" d="m0 0 5 1 1 1v9l-2 2h-4z" fill="#FDFDFD"/>
<path transform="translate(934,376)" d="m0 0 5 1 1 1v9l-2 2h-4z" fill="#232F3E"/>
<path transform="translate(1797,43)" d="m0 0h2l1 5h5l1 1v12h-2v-11l-4 1-1 10h-2z"/>
<path transform="translate(486,689)" d="m0 0 4 1 2 5-3 5-4-1-2-5z" fill="#FDFDFD"/>
<path transform="translate(401,689)" d="m0 0 4 1 2 5-3 5-4-1-2-5z" fill="#FDFDFD"/>
<path transform="translate(303,689)" d="m0 0 5 1v9l-5 1-2-2v-7z" fill="#FDFDFD"/>
<path transform="translate(1582,653)" d="m0 0 5 1v9l-5 1-2-2v-7z" fill="#FDFDFD"/>
<path transform="translate(1320,653)" d="m0 0 4 1 2 5-3 5-4-1-2-5z" fill="#FDFDFD"/>
<path transform="translate(1252,653)" d="m0 0 4 1 2 5-3 5-4-1-2-5z" fill="#FDFDFD"/>
<path transform="translate(970,653)" d="m0 0 4 1 2 5-3 5-4-1-2-5z" fill="#FDFDFD"/>
<path transform="translate(887,653)" d="m0 0 4 1 2 5-3 5-4-1-2-5z" fill="#FDFDFD"/>
<path transform="translate(819,653)" d="m0 0 4 1 2 5-3 5-4-1-2-5z" fill="#FDFDFD"/>
<path transform="translate(610,653)" d="m0 0 4 1 2 5-3 5-4-1-2-5z" fill="#FDFDFD"/>
<path transform="translate(749,593)" d="m0 0 4 1 2 5-3 5-4-1-2-5z" fill="#FDFDFD"/>
<path transform="translate(1e3 284)" d="m0 0 4 1 2 5-3 5-4-1-2-5z" fill="#FDFDFD"/>
<path transform="translate(416,527)" d="m0 0h2v19h-3l-1-15-4 1 1-3z"/>
<path transform="translate(544,467)" d="m0 0h2v19h-3l-1-15-4 1 1-3z"/>
<path transform="translate(440,467)" d="m0 0h2v19h-3l-1-15-4 1 1-3z"/>
<path transform="translate(425,467)" d="m0 0h2v19h-3l-1-15-4 1 1-3z"/>
<path transform="translate(236,50)" d="m0 0 5 1 1 7-2 3-5-1v-9z" fill="#169AB2"/>
<path transform="translate(216,50)" d="m0 0 5 1 1 7-2 3-5-1v-9z" fill="#169AB2"/>
<path transform="translate(1021,651)" d="m0 0h3l3 8 2-3 2-5 3 1-5 14h-3z"/>
<path transform="translate(828,651)" d="m0 0h3l3 8 2-3 2-5 3 1-5 14h-3z"/>
<path transform="translate(516,689)" d="m0 0 4 1 1 1v7l-2 2-4-1-1-1v-7z" fill="#FDFDFD"/>
<path transform="translate(462,689)" d="m0 0 4 1 1 1v7l-2 2-4-1-1-1v-7z" fill="#FDFDFD"/>
<path transform="translate(1230,653)" d="m0 0 4 1 1 1v7l-2 2-4-1-1-1v-7z" fill="#FDFDFD"/>
<path transform="translate(1106,653)" d="m0 0 4 1 1 1v7l-2 2-4-1-1-1v-7z" fill="#FDFDFD"/>
<path transform="translate(1069,653)" d="m0 0 4 1 1 1v7l-2 2-4-1-1-1v-7z" fill="#FDFDFD"/>
<path transform="translate(902,653)" d="m0 0 4 1 1 1v7l-2 2-4-1-1-1v-7z" fill="#FDFDFD"/>
<path transform="translate(522,653)" d="m0 0 4 1 1 1v7l-2 2-4-1-1-1v-7z" fill="#FDFDFD"/>
<path transform="translate(381,653)" d="m0 0 4 1 1 1v7l-2 2-4-1-1-1v-7z" fill="#FDFDFD"/>
<path transform="translate(1088,284)" d="m0 0 4 1 1 1v7l-2 2-4-1-1-1v-7z" fill="#FDFDFD"/>
<path transform="translate(1309,645)" d="m0 0h3v21h-3z"/>
<path transform="translate(1302,645)" d="m0 0h3v21h-3z"/>
<path transform="translate(1197,645)" d="m0 0h3v21h-3z"/>
<path transform="translate(1190,645)" d="m0 0h3v21h-3z"/>
<path transform="translate(583,645)" d="m0 0h3v21h-3z"/>
<path transform="translate(316,645)" d="m0 0h3v21h-3z"/>
<path transform="translate(702,585)" d="m0 0h3v21h-3z"/>
<path transform="translate(525,585)" d="m0 0h3v21h-3z"/>
<path transform="translate(331,465)" d="m0 0h3v21h-3z"/>
<path transform="translate(547,589)" d="m0 0h7l1 1v6l-1 1h-7z" fill="#FDFDFD"/>
<path transform="translate(1786,48)" d="m0 0 7 1 1 4h-2l-1-2h-4l-1 4 1 3 7-1-1 3-7 1-3-4 1-7z"/>
<path transform="translate(1282,645)" d="m0 0h4v2l-3 1-1 3h3v2h-3v13h-2v-13h-2v-2h2l1-5z"/>
<path transform="translate(1266,645)" d="m0 0h4v2l-3 1-1 3h3v2h-3v13h-2v-13h-2v-2h2l1-5z"/>
<path transform="translate(600,645)" d="m0 0h4v2l-3 1-1 3h3v2h-3v13h-2v-13h-2v-2h2l1-5z"/>
<path transform="translate(332,531)" d="m0 0 4 1 4-1v3l-4 1-1 11h-3z"/>
<path transform="translate(948,377)" d="m0 0 4 1 4-1v3l-4 1-1 11h-3z" fill="#FDFDFD"/>
<path transform="translate(355,647)" d="m0 0h3v19h-3z"/>
<path transform="translate(443,684)" d="m0 0h2v3h3v2h-3l1 10 2 1v2l-5-1v-12h-3v-2h3z"/>
<path transform="translate(357,684)" d="m0 0h2v3h3v2h-3l1 10 2 1v2l-5-1v-12h-3v-2h3z"/>
<path transform="translate(1518,648)" d="m0 0h2v3h3v2h-3l1 10 2 1v2l-5-1v-12h-3v-2h3z"/>
<path transform="translate(1502,648)" d="m0 0h2v3h3v2h-3l1 10 2 1v2l-5-1v-12h-3v-2h3z"/>
<path transform="translate(1125,648)" d="m0 0h2v3h3v2h-3l1 10 2 1v2l-5-1v-12h-3v-2h3z"/>
<path transform="translate(951,648)" d="m0 0h2v3h3v2h-3l1 10 2 1v2l-5-1v-12h-3v-2h3z"/>
<path transform="translate(868,648)" d="m0 0h2v3h3v2h-3l1 10 2 1v2l-5-1v-12h-3v-2h3z"/>
<path transform="translate(750,648)" d="m0 0h2v3h3v2h-3l1 10 2 1v2l-5-1v-12h-3v-2h3z"/>
<path transform="translate(783,588)" d="m0 0h2v3h3v2h-3l1 10 2 1v2l-5-1v-12h-3v-2h3z"/>
<path transform="translate(1062,279)" d="m0 0h2v3h3v2h-3l1 10 2 1v2l-5-1v-12h-3v-2h3z"/>
<path transform="translate(1014,279)" d="m0 0h2v3h3v2h-3l1 10 2 1v2l-5-1v-12h-3v-2h3z"/>
<path transform="translate(556,469)" d="m0 0 5 1 1 6-2 2h-4l-1-7z" fill="#FDFDFD"/>
<path transform="translate(801,589)" d="m0 0h6l2 2-1 4-1 1h-6z" fill="#FDFDFD"/>
<path transform="translate(638,589)" d="m0 0h6l2 2-1 4-1 1h-6z" fill="#FDFDFD"/>
<path transform="translate(1032,280)" d="m0 0h6l2 2-1 4-1 1h-6z" fill="#FDFDFD"/>
<path transform="translate(1209,213)" d="m0 0h5l2 2v4h-9l1-5z" fill="#FDFDFD"/>
<path transform="translate(877,213)" d="m0 0h5l2 2v4h-9l1-5z" fill="#FDFDFD"/>
<path transform="translate(421,687)" d="m0 0h3v15h-3z"/>
<path transform="translate(1555,651)" d="m0 0h3v15h-3z"/>
<path transform="translate(1204,651)" d="m0 0h3v15h-3z"/>
<path transform="translate(1183,651)" d="m0 0h3v15h-3z"/>
<path transform="translate(1080,651)" d="m0 0h3v15h-3z"/>
<path transform="translate(959,651)" d="m0 0h3v15h-3z"/>
<path transform="translate(561,651)" d="m0 0h3v15h-3z"/>
<path transform="translate(392,651)" d="m0 0h3v15h-3z"/>
<path transform="translate(830,591)" d="m0 0h3v15h-3z"/>
<path transform="translate(775,591)" d="m0 0h3v15h-3z"/>
<path transform="translate(379,591)" d="m0 0h3v15h-3z"/>
<path transform="translate(486,531)" d="m0 0h3v15h-3z"/>
<path transform="translate(365,531)" d="m0 0h3v15h-3z"/>
<path transform="translate(1091,377)" d="m0 0h3v15h-3z" fill="#FDFDFD"/>
<path transform="translate(830,377)" d="m0 0h3v15h-3z" fill="#FDFDFD"/>
<path transform="translate(1163,198)" d="m0 0h5l1 1v5l-1 1h-5l-1-1v-5z"/>
<path transform="translate(1010,198)" d="m0 0h5l1 1v5l-1 1h-5l-1-1v-5z"/>
<path transform="translate(775,198)" d="m0 0h5l1 1v5l-1 1h-5l-1-1v-5z"/>
<path transform="translate(444,537)" d="m0 0 5 1v5l-1 1h-5l-1-1v-5z" fill="#FDFDFD"/>
<path transform="translate(789,227)" d="m0 0 5 1 1 4-2 2-5-1-1-4z"/>
<path transform="translate(789,208)" d="m0 0 5 1 1 4-2 2-5-1-1-4z"/>
<path transform="translate(327,654)" d="m0 0 4 1v7l-4 1-1-1v-7z" fill="#FDFDFD"/>
<path transform="translate(376,534)" d="m0 0 4 1v7l-4 1-1-1v-7z" fill="#FDFDFD"/>
<path transform="translate(400,474)" d="m0 0 4 1v7l-4 1-1-1v-7z" fill="#FDFDFD"/>
<path transform="translate(1125,380)" d="m0 0 4 1v7l-4 1-1-1v-7z" fill="#232F3E"/>
<path transform="translate(841,380)" d="m0 0 4 1v7l-4 1-1-1v-7z" fill="#232F3E"/>
<path transform="translate(909,285)" d="m0 0 4 1v7l-4 1-1-1v-7z" fill="#FDFDFD"/>
<path transform="translate(473,687)" d="m0 0h4 3v2l-4 2-1 11h-2z"/>
<path transform="translate(412,687)" d="m0 0h4 3v2l-4 2-1 11h-2z"/>
<path transform="translate(388,687)" d="m0 0h4 3v2l-4 2-1 11h-2z"/>
<path transform="translate(379,687)" d="m0 0h4 3v2l-4 2-1 11h-2z"/>
<path transform="translate(1562,651)" d="m0 0h4 3v2l-4 2-1 11h-2z"/>
<path transform="translate(1373,651)" d="m0 0h4 3v2l-4 2-1 11h-2z"/>
<path transform="translate(927,651)" d="m0 0h4 3v2l-4 2-1 11h-2z"/>
<path transform="translate(857,651)" d="m0 0h4 3v2l-4 2-1 11h-2z"/>
<path transform="translate(621,651)" d="m0 0h4 3v2l-4 2-1 11h-2z"/>
<path transform="translate(451,651)" d="m0 0h4 3v2l-4 2-1 11h-2z"/>
<path transform="translate(302,650)" d="m0 0h6l1 5-1 1h-6z" fill="#FDFDFD"/>
<path transform="translate(576,591)" d="m0 0h4 3v2l-4 2-1 11h-2z"/>
<path transform="translate(1445,46)" d="m0 0h6l1 5-1 1h-6z" fill="#FDFDFD"/>
<path transform="translate(1054,223)" d="m0 0h6v5l-6 1-2-3z" fill="#FDFDFD"/>
<path transform="translate(303,470)" d="m0 0h5l1 5-1 1h-5z" fill="#FDFDFD"/>
<path transform="translate(854,281)" d="m0 0h5l1 5-1 1h-5z" fill="#FDFDFD"/>
<path transform="translate(1776,48)" d="m0 0h6v2l-3 1-1 10h-2z"/>
<path transform="translate(444,529)" d="m0 0 4 1 1 3-1 2-5-1v-4z" fill="#FDFDFD"/>
<path transform="translate(196,47)" d="m0 0h2l2 8h-6z" fill="#169AB2"/>
<path transform="translate(337,695)" d="m0 0h5l-1 5-5-1z" fill="#FDFDFD"/>
<path transform="translate(1596,659)" d="m0 0h5l-1 5-5-1z" fill="#FDFDFD"/>
<path transform="translate(1489,659)" d="m0 0h5l-1 5-5-1z" fill="#FDFDFD"/>
<path transform="translate(1361,659)" d="m0 0h5l-1 5-5-1z" fill="#FDFDFD"/>
<path transform="translate(1011,659)" d="m0 0h5l-1 5-5-1z" fill="#FDFDFD"/>
<path transform="translate(938,659)" d="m0 0h5l-1 5-5-1z" fill="#FDFDFD"/>
<path transform="translate(782,659)" d="m0 0h5l-1 5-5-1z" fill="#FDFDFD"/>
<path transform="translate(571,659)" d="m0 0h5l-1 5-5-1z" fill="#FDFDFD"/>
<path transform="translate(439,659)" d="m0 0h5l-1 5-5-1z" fill="#FDFDFD"/>
<path transform="translate(402,659)" d="m0 0h5l-1 5-5-1z" fill="#FDFDFD"/>
<path transform="translate(855,599)" d="m0 0h5l-1 5-5-1z" fill="#FDFDFD"/>
<path transform="translate(818,599)" d="m0 0h5l-1 5-5-1z" fill="#FDFDFD"/>
<path transform="translate(690,599)" d="m0 0h5l-1 5-5-1z" fill="#FDFDFD"/>
<path transform="translate(655,599)" d="m0 0h5l-1 5-5-1z" fill="#FDFDFD"/>
<path transform="translate(564,599)" d="m0 0h5l-1 5-5-1z" fill="#FDFDFD"/>
<path transform="translate(513,599)" d="m0 0h5l-1 5-5-1z" fill="#FDFDFD"/>
<path transform="translate(454,599)" d="m0 0h5l-1 5-5-1z" fill="#FDFDFD"/>
<path transform="translate(474,479)" d="m0 0h5l-1 5-5-1z" fill="#FDFDFD"/>
<path transform="translate(1049,290)" d="m0 0h5l-1 5-5-1z" fill="#FDFDFD"/>
<path transform="translate(150,39)" d="m0 0 5 1-1 4-5-1z" fill="#FDFDFD"/>
</svg>
