<?xml version="1.0" encoding="UTF-8"?>
<svg version="1.1" viewBox="0 0 2048 1556" width="500" height="500" xmlns="http://www.w3.org/2000/svg">
<path transform="translate(24,4)" d="m0 0h2015l5 1-1 1546-79 1h-1956l-4-1v-1543l1-3z" fill="#FCFCFC"/>
<path transform="translate(24,4)" d="m0 0h2015l5 1-1 1546-79 1h-1956l-4-1v-1543l1-3zm148 69-11 4-9 8-6 12-1 5v1352l2 10 6 10 8 7 10 4 17 1h1684l33-1 10-4 8-6 6-10 2-7v-1359l-5-12-4-5-9-6-8-3z" fill="#341E6A"/>
<path transform="translate(1487,403)" d="m0 0h264l16 2 15 5 14 8 10 8 10 11 8 14 5 13 3 18v10l-2 14-5 15-7 13-7 9-9 9-14 9-11 5-15 4-9 1h-267l-15-2-15-5-11-6-12-9-9-10-9-14-6-16-2-10v-24l4-16 5-12 9-13 9-10 13-9 14-7 15-4z" fill="#FE5D47"/>
<path transform="translate(669,205)" d="m0 0h95v132h-58l-1-2h-3l-1 2h-32z" fill="#FDF8F8"/>
<path transform="translate(426,1008)" d="m0 0h12l7 4 4 5 3 7v3h7v-9l6 3v-2h9v3l-8 1-1 3 12 1 2-5 4-3h13l5 7h8l1-8 4 2h3l4-2 6 1 4 5v3h9l1-4 6-4h8l4 1 2-2h3v9h9l1-4 6-4h8l6 4 2 3 4 2-2 5-1 2-6 1h-16l2 5 3 3h10l5-4 2 1-7 7h-11l-6-5-2-4v-8h-7v21l-5 6-10 2-9-3-2-5h4l3 3h10l4-4v-5l-4 2h-9l-6-5-2-5v-7h-7v18h-4v-18l-13 1-1 17h-3l-1-17h-8l-1 15h2v2l-4-1-3-4-6 5h-7l-5-5-1-6 5-7h-18l-1 18h-3v-18l-7 1-4 8-8 7-10 2-7-2-8-8-4-8 2-10 5-8 5-4z" fill="#373469"/>
<path transform="translate(669,205)" d="m0 0h95v132h-58l-1-4 55-1v-123l-40 1 6 7 6 3 1 1 21 2v102h-75v-71l4-1v68h67v-95l-16 1-3 5-1 1h-27l-3-3v-3l-17-1v22l-4 1v-26l1-1 20-1 4-3 5-3 4-5-40-1v123l28 1 1 2-1 2h-32z" fill="#0E1123"/>
<path transform="translate(673,209)" d="m0 0h44l-4 2-6 7-6 3-1 1-20 1v29l2 1-2 1-1 71h75v-102l-21-1-4-3-5-3-4-5-2-2h42l1 123-1 1-59 1-28-1-1-1z" fill="#FD5C46"/>
<path transform="translate(285,1179)" d="m0 0h48l2 3v44l-3 4h-38l-8-6-3-3v-40z" fill="#FDF9F9"/>
<path transform="translate(371,240)" d="m0 0h29l9 6 5 6 3 9v13l-3 12-9 9-4 2h-30l-1-1v-55z" fill="#223172"/>
<path transform="translate(289,884)" d="m0 0h40v41l-1 1h-36l-3-1-1-2v-38z" fill="#FDFDFD"/>
<path transform="translate(669,205)" d="m0 0h95v132h-58l-1-4 55-1v-123l-43 1-44-1v123l28 1 1 2-1 2h-32z" fill="#080D1E"/>
<path transform="translate(348,707)" d="m0 0 4 2 7 11-2 4-41 41-3 1-12-11-13-13-2-3v-5l7-7h6l14 14 4-2 30-30z" fill="#050507"/>
<path transform="translate(348,1007)" d="m0 0 4 2 7 10-1 4-42 42-5-1-25-25v-5l8-8 5 1 14 14 4-2 14-14 7-8 5-5z" fill="#050406"/>
<path transform="translate(310,253)" d="m0 0h7l10 4 6 7 2 6v11l-6 11-10 5h-12l-9-4-5-6-2-6v-11l4-9 5-5z" fill="#1E3073"/>
<path transform="translate(442,253)" d="m0 0h7l10 4 6 6 2 6v12l-5 10-8 5-2 1h-13l-9-4-4-5-3-9v-7l3-10 6-6z" fill="#1F3073"/>
<path transform="translate(164,73)" d="m0 0m-6 1h6l-1 3-8 6-6 9-3 10-1 34-1 432h-1l-1-139-1-3h2l-1-7-1-2 1-7-1-2 1-4-1-5v-9l-1-8v-42l-1-28v-154l1-49 1-10 4-12 6-9z" fill="#142F75"/>
<path transform="translate(443,707)" d="m0 0h2l-2 4-12 12 1 3 2 1 18 1v-9h4v8h9v-4l-4-1v-3h4l1-9h3v9h7v3l-6 1-1 4h10l5-6 4-2h7l6 4 3 4 3 1-1 4-2 4h-22l3 6 5 3 8-1 4-4h2l-2 4-6 5h-8l-6-4-4-8-1-5h-7v13h6l-1 4h-7l-2-2-1-12-1-3-8-1v18h-4v-17l-16-1 3 6 8 11v1h-5l-9-10-5-7h-6l-3 3-1 14h-3v-18l-5-1v-2l4-1 1-19h3v19l5-3 16-16z" fill="#43386B"/>
<path transform="translate(774,236)" d="m0 0h7l5 5v29l-1 1-1 41-4 7-4 1-5-8v-20h4v2h5v-23h-5v17l-4-1v-16h-2l1-31z" fill="#0B0D1B"/>
<path transform="translate(576,253)" d="m0 0h11l8 5 2 4-8 3-6-4h-5l-2 2 1 4 1 1 8 1 7 3 7 8v7l-6 7-6 3h-15l-8-4-3-6 6-3h5l4 4h8l3-3-2-4-9-2-7-3-6-7v-7l5-6z" fill="#1D2F73"/>
<path transform="translate(382,249)" d="m0 0h14l6 4 3 4 1 3v17l-4 8-4 4h-16l-1-1v-38z" fill="#FDFDFD"/>
<path transform="translate(247,240)" d="m0 0h46v9l-17 1-1 47h-10l-1-47-17-1z" fill="#162D74"/>
<path transform="translate(285,1179)" d="m0 0h48l2 3v44l-3 4h-38l-8-6-3-3v-40zm4 5-1 1v38l1 2 4 1h35l1-1v-41z" fill="#100F1D"/>
<path transform="translate(499,240)" d="m0 0h10l1 48 28 1v8h-40v-56z" fill="#233172"/>
<path transform="translate(632,1168)" d="m0 0h6l1 1h5l4-1v34l-5 6-3 2h-10l-6-3-2-2v-4l4 1 5 3 8-1 3-3 2-5-6 3h-6l-6-3-3-4-1-3v-12l4-6z" fill="#0D0C17"/>
<path transform="translate(8,5)" d="m0 0h88v1l-9 1v3l8-1 14 3-1 3-20 1-16-1-20-2-7 1-18 2-7-1-4 1-4-1-2-4 2-4-4-1z" fill="#2C206C"/>
<path transform="translate(284,880)" d="m0 0h49l2 3v28l-1 17-1 2h-40l-10-8v-41zm5 4-1 1v38l1 2 3 1h36l1-1v-41z" fill="#090B15"/>
<path transform="translate(618,240)" d="m0 0h1v13h9v9l-8 1v25l8 1v6l-2 2h-13l-4-4-1-3v-28h-4v-8l4-1v-5l7-6z" fill="#203173"/>
<path transform="translate(547,1168)" d="m0 0h4v4l6-4h9l6 7 1 3v11l-4 6-6 4h-6l-5-2-1 12-4 1z" fill="#0C0A13"/>
<path transform="translate(514,1168)" d="m0 0 4 1v3l5-4h10l6 7 1 3v11l-4 6-6 4h-6l-5-2-1 12-4 1z" fill="#0C0B14"/>
<path transform="translate(415,857)" d="m0 0h5l3 3 8 26 2 5 11-32 1-2h7v42h-4v-33l-2 1-10 32h-6l-8-26-2-6-1 31-4 1z" fill="#0E0E1C"/>
<path transform="translate(488,1168)" d="m0 0h11l6 5 2 5v10l-3 6-3 3-4 2-9-1-5-4-2-5v-12l3-5z" fill="#FDF7F6"/>
<path transform="translate(1658,465)" d="m0 0 4 1 1 35-4 2-3-3-2 2h-9l-5-5-3-8 1-8 4-5 4-2h7l5 2z" fill="#FDFDFD"/>
<path transform="translate(1627,465)" d="m0 0h4l1 36-4 2-3-3-2 2h-9l-5-5-2-4v-11l7-8h8l5 2z" fill="#FDFDFD"/>
<path transform="translate(346,745)" d="m0 0h3v23l-3 6-5 4-6 2h-42l-9-7 3-1h46l7-2 2-4 1-18z" fill="#090912"/>
<path transform="translate(347,1044)" d="m0 0h2v24l-3 6-5 4-3 1h-46l-8-6v-1l56-1 2-6 1-17z" fill="#070912"/>
<path transform="translate(1588,464)" d="m0 0 5 5 6 14 6 17-1 3-4-2-4-8-1-1h-15l-2 6-3 5h-3l1-7 10-26 3-5z" fill="#FDFDFD"/>
<path transform="translate(488,719)" d="m0 0h7l6 4 3 4 3 1-1 4-2 4h-22l3 6 5 3 8-1 4-4h2l-2 4-6 5h-8l-6-4-4-8-1-5-5-1-2-3 9-1 5-6z" fill="#45386B"/>
<path transform="translate(442,262)" d="m0 0h6l6 3 2 4v13l-2 4-7 3-7-1-5-5-1-3v-10l4-6z" fill="#FDFDFD"/>
<path transform="translate(310,262)" d="m0 0h6l6 4 2 4v11l-4 6-5 2-7-1-5-5-1-2v-12l4-5z" fill="#FDFDFD"/>
<path transform="translate(424,1157)" d="m0 0h10l8 4 3 5v4h-3l-4-6-4-2h-10l-5 3 1 5 9 4 9 2 5 3 2 3v9l-4 5-8 3h-8l-8-5-4-4-1-6h4l4 6 5 4h9l5-3 1-7-2-2-16-4-7-6-1-4 2-5 6-5z" fill="#0B0A13"/>
<path transform="translate(546,253)" d="m0 0h9l1 5v25l-1 14h-10v-43z" fill="#243272"/>
<path transform="translate(426,1011)" d="m0 0h12l9 9 1 7-15 1h-16l-2-2 3-9 6-5z" fill="#FDFBFB"/>
<path transform="translate(334,883)" d="m0 0h1v28l-1 17-1 2h-40l-4-4 39-1 1-40z" fill="#090C1A"/>
<path transform="translate(391,470)" d="m0 0h3v32h-3l-1-3-3 3h-7v-2h-2l-3-6v-7l3-6 2-2h7l4 3z" fill="#262957"/>
<path transform="translate(415,470)" d="m0 0h3v32h-3l-1-3-3 3h-6l-4-4-2-6 1-7 3-5 1-1h7l3 2z" fill="#202756"/>
<path transform="translate(712,239)" d="m0 0h4l-2 4-4 3h-2l-1 13h-17l-1-1v-18h17l4 1z" fill="#0B1024"/>
<path transform="translate(488,857)" d="m0 0h3v25l8-7 7-7h5l-2 4-7 7 1 4 8 16h-5l-9-12-1-2-3 1-1 2-1 11h-4v-41z" fill="#180F17"/>
<path transform="translate(69,5)" d="m0 0h27v1l-9 1v3l8-1 14 3-1 3-20 1-16-1-19-2 3-3h4v-2l-2-2z" fill="#152D75"/>
<path transform="translate(416,1031)" d="m0 0h32l-1 6-5 6-4 2h-13l-7-6-2-3z" fill="#FDFBFB"/>
<path transform="translate(713,266)" d="m0 0h3v3l-8 6-1 12h-18v-18l22-1z" fill="#0A0C18"/>
<path transform="translate(292 1e3)" d="m0 0h46l3 1-1 4-2 2h-54l4-4z" fill="#070609"/>
<path transform="translate(293,701)" d="m0 0h43l5 2-2 4-1 1-54 1v-2z" fill="#0B0B14"/>
<path transform="translate(1757,1023)" d="m0 0 4 2 6 6 4-2 4-4h2v-2l4 2-1 4-7 7-1 2 4 2 5 6-1 4-4-1-7-6-4 1-7 7-3-3 1-4 7-7-6-7-2-2 1-4z" fill="#3E366A"/>
<path transform="translate(356,470)" d="m0 0h5l9 24 2 8h-3l-3-9-16 1-3 7-3 1 3-9 8-22z" fill="#372E58"/>
<path transform="translate(1757,1173)" d="m0 0 4 2 6 6 4-2 6-6 4 2-1 4-7 7 6 7 2 5-4 2-7-7-3-1-9 9-3-3 1-4 7-7-6-7-2-2 1-4z" fill="#3B366B"/>
<path transform="translate(1757,723)" d="m0 0 7 6 5 3 7-7 1-2 3 1 1 4-8 8 2 4 6 6-2 5-4-2-6-6-4 2-7 6-3-2 1-5 7-6-6-7-2-2 1-4z" fill="#3A366C"/>
<path transform="translate(524,1172)" d="m0 0h6l5 4 1 2v11l-5 5-7 1-6-5v-13z" fill="#FDF6F5"/>
<path transform="translate(452,1157)" d="m0 0h4l1 13 5-2h7l5 5v26h-4l-1-24-3-2-6 1-3 3-1 22h-4z" fill="#0A0C18"/>
<path transform="translate(1757,873)" d="m0 0h2v2h2l7 7 6-5 1-2h2v-2l3 1 1 4-8 8 2 4 6 6-2 5-4-2-6-6-4 2-8 6-2-3 1-4 5-5h2l-2-5-5-5-1-4h2z" fill="#38356C"/>
<path transform="translate(557,1172)" d="m0 0h6l5 4 1 2v11l-5 5-7 1-5-4-1-2v-12z" fill="#FDF7F7"/>
<path transform="translate(689,297)" d="m0 0h18v19h-18z" fill="#0C1023"/>
<path transform="translate(632,1172)" d="m0 0h6l5 5 1 2v10l-5 5-7 1-5-4-1-2v-12z" fill="#FDF8F8"/>
<path transform="translate(398,7)" d="m0 0 1 3 28 1 5-1 32 1 5 2-2 2-5 1h-19l-40-2h-6l-3-1-6 1h-7l-1-3 3-2h11z" fill="#132F76"/>
<path transform="translate(488,1168)" d="m0 0h11l6 5 2 5v10l-3 6-3 3-4 2-9-1-5-4-2-5v-12l3-5zm2 4-5 5-1 9 3 6 4 3 7-1 4-4 1-3v-8l-4-6z" fill="#100D16"/>
<path transform="translate(593,1168)" d="m0 0 9 1 1-1h7l5 5v26h-4l-1-24-3-2-5 1-4 3-1 22h-4z" fill="#0D1022"/>
<path transform="translate(443,707)" d="m0 0h2l-2 4-12 12h-2v2l-5 3 2 3-6 2-1 2-1 14h-3v-18l-5-1v-2l4-1 1-19h3v19l5-3 16-16z" fill="#28326F"/>
<path transform="translate(552,479)" d="m0 0h9l4 5 1 7h-16l3 7h8l5-3-2 4-4 3h-7l-5-5-1-3v-8l4-6z" fill="#603854"/>
<path transform="translate(716,213)" d="m0 0 4 3 2 5 7 1 1 1v5l-2 2h-13l-11-1v-7h8l2-7z" fill="#FE5D47"/>
<path transform="translate(682,253)" d="m0 0h1v68h66v1h-68l-1-10v-55h2z" fill="#523B69"/>
<path transform="translate(1648,478)" d="m0 0 6 1 4 5v7l-3 5-3 2h-5l-4-5-1-8z" fill="#FE5D47"/>
<path transform="translate(592,472)" d="m0 0h2v6l5 1v3h-4v-3h-2l1 2 1 18h4v2h-7l-1-6v-14h-5l-5 9 5 9 2 3-5-2-4-6-2 1-3 5-4 2 2-5 4-7-6-10-1-2 5 2 3 5v3l3-3 6-7 5-1z" fill="#332A4E"/>
<path transform="translate(1617,478)" d="m0 0 6 1 4 5v8l-4 5-6 1-5-5v-10z" fill="#FE5D47"/>
<path transform="translate(333,1207)" d="m0 0h1v21l-2 2h-38l-4-4 40-1v-17l1 3h2z" fill="#0A0C19"/>
<path transform="translate(277,717)" d="m0 0h1v46l-3-3-4-13v-13l3-11z" fill="#0E0A11"/>
<path transform="translate(277,1017)" d="m0 0h1v46l-3-3-4-13v-13l3-12z" fill="#0D0A0F"/>
<path transform="translate(542,1031)" d="m0 0h18v9l-5 5h-8l-5-6z" fill="#FDFDFD"/>
<path transform="translate(8,5)" d="m0 0h12l-1 4 2 2 6-1h21l5 1-1 2-7 1-18 2-7-1-4 1-4-1-2-4 2-4-4-1z" fill="#132F76"/>
<path transform="translate(342,273)" d="m0 0h21l1 2v6l-1 1h-21z" fill="#1E2E73"/>
<path transform="translate(774,241)" d="m0 0 5 2 2 2 1 22h-9v-22z" fill="#FD6E5A"/>
<path transform="translate(383,481)" d="m0 0 6 2 2 2v9l-4 5-4 1-4-4-1-2v-8z" fill="#FDFBFB"/>
<path transform="translate(407,481)" d="m0 0 6 2 2 2v10l-4 4-4 1-4-4-1-9 3-5z" fill="#FDFAFA"/>
<path transform="translate(334,1182)" d="m0 0h1v44h-1l-1-15h-2l-1 14h-1v-41z" fill="#41386C"/>
<path transform="translate(474,857)" d="m0 0h4v42h-4z" fill="#090B15"/>
<path transform="translate(435,479)" d="m0 0h3l8 20 5-16 2-4 3 1-8 23-5 7h-6v-2l6-3v-6l-6-11z" fill="#332A50"/>
<path transform="translate(484,478)" d="m0 0h2l1 21 7-2 2-3 1-16h2l1 9v15h-3l-1-3-4 3h-7l-2-4v-19z" fill="#513558"/>
<path transform="translate(464,479)" d="m0 0h9l4 5 1 6-2 8-4 4h-8l-4-5-1-2v-9l3-5zm1 3-3 4v8l3 5h7l3-6v-7l-3-4z" fill="#352F5C"/>
<path transform="translate(334,883)" d="m0 0h1v22h-2v5h-2l-1 16-2-1 1-40z" fill="#35356F"/>
<path transform="translate(490,1033)" d="m0 0h6v7l-5 5h-8l-3-3 1-5 3-2z" fill="#FDFDFD"/>
<path transform="translate(412,1027)" d="m0 0h1l2 6 7 9 3 2h13l6-4 5-8h2l-1 5-7 8-5 3-8 1-7-2-8-8-4-8z" fill="#11142B"/>
<path transform="translate(521,1018)" d="m0 0 6 1 4 5v3h-20v-6l3-1h3z" fill="#453767"/>
<path transform="translate(693,300)" d="m0 0h10l1 1v11h-11z" fill="#FDE3DF"/>
<path transform="translate(580,1168)" d="m0 0h4v31h-4z" fill="#090C18"/>
<path transform="translate(461,868)" d="m0 0h4v31h-4z" fill="#0C1024"/>
<path transform="translate(492,1030)" d="m0 0 2 2-5 1-1 2-7 3 1 5 7 2v4h-7l-5-5-1-6 5-7z" fill="#663F65"/>
<path transform="translate(357,472)" d="m0 0h2l6 18h-13l3-10z" fill="#FDFBFB"/>
<path transform="translate(534,472)" d="m0 0h3v8l5-1-1 3h-4v17h5v2h-7l-1-1v-18h-2z" fill="#252D62"/>
<path transform="translate(1588,469)" d="m0 0 2 4 4 10v4h-11l-1-2z" fill="#FE5D47"/>
<path transform="translate(592,472)" d="m0 0h2v6l5 1v3h-4v-3h-2l1 2 1 18h4v2h-7l-1-6v-14l-5-2v-1l5-1z" fill="#4A355F"/>
<path transform="translate(716,244)" d="m0 0h28v4h-27z" fill="#0F1225"/>
<path transform="translate(717,301)" d="m0 0h27v4h-27z" fill="#151221"/>
<path transform="translate(293,11)" d="m0 0h18l5 1 4-1 6 2-2 3-21-1-9-1z" fill="#132F76"/>
<path transform="translate(483,1019)" d="m0 0h13l5 7-3 1-5-4h-9l-4 1v2l14 1v1h-17l1-5z" fill="#59385C"/>
<path transform="translate(717,272)" d="m0 0h13l14 1v3h-27z" fill="#070B18"/>
<path transform="translate(717,251)" d="m0 0h18l1 4-1 1h-18z" fill="#45386A"/>
<path transform="translate(552,479)" d="m0 0h9l4 5 1 6h-15v-2l12-1-3-4-4-1-4 2-2 2h-2l2-5z" fill="#242855"/>
<path transform="translate(545,240)" d="m0 0h10v9h-10z" fill="#192B73"/>
<path transform="translate(353,476)" d="m0 0 3 1-2 9-2 4 10 2v1l-12 1-3 7-3 1 3-9z" fill="#51375D"/>
<path transform="translate(506,478)" d="m0 0h2l1 3 4-2h5l-1 3-7 2-1 1-1 17h-2l-1-23z" fill="#3E2E53"/>
<path transform="translate(426,1008)" d="m0 0h12v3l-12 1-6 4-4 6-2-1 2-5 5-5z" fill="#1E1628"/>
<path transform="translate(497,478)" d="m0 0h2l1 9v15h-3l-1-3-3 2-1-3 4-4z" fill="#55314A"/>
<path transform="translate(717,308)" d="m0 0h18l1 4h-19z" fill="#28161E"/>
<path transform="translate(680,253)" d="m0 0h2v4h-2l1 33-1 22h-1v-58z" fill="#050405"/>
<path transform="translate(484,1022)" d="m0 0h9l5 5h-20l2-1v-2z" fill="#FDFAFA"/>
<path transform="translate(717,280)" d="m0 0h18v4h-18z" fill="#0F2356"/>
<path transform="translate(453,479)" d="m0 0 3 1-8 23h-2l-1-4 2-4 5-15z" fill="#3F366A"/>
<path transform="translate(488,719)" d="m0 0h7l6 4 1 3-5-1-3-2-7 1-3 2h-3l2-4z" fill="#192F71"/>
<path transform="translate(775,299)" d="m0 0h5v13l-1 2-3-1-1-2z" fill="#FDF8F7"/>
<path transform="translate(556,481)" d="m0 0 5 2 3 5h-14l2-5z" fill="#FDFDFD"/>
<path transform="translate(693,244)" d="m0 0h10v3l-4 2-5-2 1 6h5l4-1v3h-11l-1-8z" fill="#FDC0B8"/>
<path transform="translate(693,273)" d="m0 0h10v2l-5 1-4-1 1 6h5l4-2v4l-2 1h-9l-1-10z" fill="#FDCCC5"/>
<path transform="translate(581,1022)" d="m0 0h6l6 4v1h-18l4-4z" fill="#FDFAFA"/>
<path transform="translate(569,478)" d="m0 0 5 2 4 8 1 4-5 8-4 2 2-5 4-7-6-10z" fill="#2B2342"/>
<path transform="translate(405,480)" d="m0 0 2 2h-2l-2 5 1 9 2 3-3 2-3-5-1-8 2-6z" fill="#4F3A68"/>
<path transform="translate(548,1022)" d="m0 0h6l5 5h-17l4-4z" fill="#FDFDFD"/>
<path transform="translate(489,722)" d="m0 0 7 1 4 4h-17l4-4z" fill="#FDFDFD"/>
<path transform="translate(475,485)" d="m0 0 2 1 1 4-2 8-4 4h-8v-2l7-1 3-6z" fill="#222142"/>
<path transform="translate(379,481)" d="m0 0 2 2-2 3v8l2 5-3 1-3-6v-7l2-5z" fill="#36356C"/>
<path transform="translate(465,1019)" d="m0 0h9v3l-8 1-2 4-4-1 1-1-1-2h2v-2h3z" fill="#673E62"/>
<path transform="translate(439,1009)" d="m0 0 5 2 5 6-2 2-4-2-5-5z" fill="#523964"/>
<path transform="translate(481,11)" d="m0 0h7l3 2-3 2h-13l2-3z" fill="#132F76"/>
<path transform="translate(777,239)" d="m0 0 5 1v26h-1l-1-21-6-4z" fill="#182F75"/>
<path transform="translate(520,1022)" d="m0 0 5 1 4 4h-14v-2z" fill="#FDFDFD"/>
<path transform="translate(442,495)" d="m0 0h3l2 10-4 5h-6v-2l6-3v-6z" fill="#19172C"/>
<path transform="translate(412,1027)" d="m0 0h1l2 6 7 9 1 4-7-6-5-9z" fill="#091128"/>
<path transform="translate(502,740)" d="m0 0h2l-2 4-6 5h-8v-2l10-3z" fill="#271B2E"/>
<path transform="translate(592,472)" d="m0 0h2v6l5 1v3h-4v-3l-6 2-3-3 5-1z" fill="#60364F"/>
<path transform="translate(519,1019)" d="m0 0m-6 1 2 1 4-1 1 3-5 2v2l-4-1v-5z" fill="#91475C"/>
<path transform="translate(581,1019)" d="m0 0h7l6 4 1 3-5-1-6-4z" fill="#181A38"/>
<path transform="translate(328,12)" d="m0 0h12v3h-13z" fill="#132F76"/>
<path transform="translate(482,730)" d="m0 0h10l-1 3-9 2-1-2z" fill="#F75B48"/>
<path transform="translate(358,11)" d="m0 0h6l2 1v2l-2 1h-8l-1-3z" fill="#132F76"/>
<path transform="translate(595,1040)" d="m0 0 2 1-7 7h-9l2-2 9-3z" fill="#091128"/>
<path transform="translate(422,1010)" d="m0 0 2 1-6 8-3 3-1-3 4-6z" fill="#091129"/>
<path transform="translate(490,719)" d="m0 0 7 1 5 4v2l-5-1-3-2v-2z" fill="#1A1E41"/>
<path transform="translate(423,1044)" d="m0 0 12 1-3 1v3l-9-2z" fill="#5D2A30"/>
<path transform="translate(356,470)" d="m0 0h5l1 6h-2l-1-4h-2l-1 5h-2l1-6z" fill="#261722"/>
<path transform="translate(547,1019)" d="m0 0h8l-2 3-8 2-1-2z" fill="#1E2654"/>
<path transform="translate(348,490)" d="m0 0h2l-1 7-3 5h-2l3-9z" fill="#2A1C2F"/>
<path transform="translate(692,247)" d="m0 0h2l1 6h5l4-1v3h-11z" fill="#FDC7C0"/>
<path transform="translate(74,5)" d="m0 0h6l2 2-3 3-4-1v-2l-2-1z" fill="#26246F"/>
<path transform="translate(554,1020)" d="m0 0 7 2 1 3-1 2-4-2-4-4z" fill="#5B3D67"/>
<path transform="translate(453,479)" d="m0 0 3 1-3 9-3-1 1-5z" fill="#35233B"/>
<path transform="translate(429,723)" d="m0 0 3 4-7 3-3-2 5-3h2z" fill="#ED594A"/>
<path transform="translate(388,497)" d="m0 0h2l-2 4-1 1h-7l-1-3h6z" fill="#1D1E3E"/>
<path transform="translate(693,273)" d="m0 0h10v2l-5 1-5-1-1 4v-5z" fill="#FDC9C2"/>
<path transform="translate(474,745)" d="m0 0h2l-1 4h-7v-3z" fill="#5C2728"/>
<path transform="translate(367,493)" d="m0 0 3 1 2 8h-3l-2-4z" fill="#20234B"/>
</svg>
